<svg xmlns="http://www.w3.org/2000/svg" viewBox="0 0 920 440" role="img" aria-label="TARGETS / choose the question before choosing the output"><title>TARGETS / choose the question before choosing the output</title><defs><marker id="tasks-a-teal" viewBox="0 0 10 10" refX="8" refY="5" markerWidth="7" markerHeight="7" orient="auto-start-reverse"><path d="M0 0L10 5L0 10Z" fill="#12655b"/></marker><marker id="tasks-a-coral" viewBox="0 0 10 10" refX="8" refY="5" markerWidth="7" markerHeight="7" orient="auto-start-reverse"><path d="M0 0L10 5L0 10Z" fill="#b24a30"/></marker></defs><style>text{font-family:system-ui,-apple-system,sans-serif;font-variant-numeric:tabular-nums}.number{font-family:ui-monospace,monospace}</style><rect width="920" height="440" rx="14" fill="#fffefa"/><text x="30" y="36" font-size="17" fill="#586c62" text-anchor="start" >TARGETS / choose the question before choosing the output</text><rect x="83" y="76" width="184" height="75" rx="12" fill="#dceadd" stroke="#cbd7ca" /><text x="175" y="105" font-size="25" fill="#183c35" text-anchor="middle" >not</text><text x="175" y="135" font-size="16" fill="#586c62" text-anchor="middle" >x1 = [1, 0, 0]</text><path d="M175 153 L175 192" fill="none" stroke="#12655b" stroke-width="2.5" marker-end="url(#tasks-a-teal)"/><rect x="83" y="201" width="184" height="64" rx="12" fill="#dceadd" stroke="#cbd7ca" /><text x="175" y="240" font-size="22" fill="#12655b" text-anchor="middle" >state h1</text><path d="M272 233 L351 233" fill="none" stroke="#12655b" stroke-width="2.5" marker-end="url(#tasks-a-teal)"/><rect x="365" y="76" width="184" height="75" rx="12" fill="#dceadd" stroke="#cbd7ca" /><text x="457" y="105" font-size="25" fill="#183c35" text-anchor="middle" >very</text><text x="457" y="135" font-size="16" fill="#586c62" text-anchor="middle" >x2 = [0, 1, 0]</text><path d="M457 153 L457 192" fill="none" stroke="#12655b" stroke-width="2.5" marker-end="url(#tasks-a-teal)"/><rect x="365" y="201" width="184" height="64" rx="12" fill="#dceadd" stroke="#cbd7ca" /><text x="457" y="240" font-size="22" fill="#12655b" text-anchor="middle" >state h2</text><path d="M554 233 L633 233" fill="none" stroke="#12655b" stroke-width="2.5" marker-end="url(#tasks-a-teal)"/><rect x="647" y="76" width="184" height="75" rx="12" fill="#dceadd" stroke="#cbd7ca" /><text x="739" y="105" font-size="25" fill="#183c35" text-anchor="middle" >good</text><text x="739" y="135" font-size="16" fill="#586c62" text-anchor="middle" >x3 = [0, 0, 1]</text><path d="M739 153 L739 192" fill="none" stroke="#12655b" stroke-width="2.5" marker-end="url(#tasks-a-teal)"/><rect x="647" y="201" width="184" height="64" rx="12" fill="#dceadd" stroke="#cbd7ca" /><text x="739" y="240" font-size="22" fill="#12655b" text-anchor="middle" >state h3</text><path d="M739 270 L739 309" fill="none" stroke="#12655b" stroke-width="2.5" marker-end="url(#tasks-a-teal)"/><rect x="647" y="318" width="184" height="52" rx="12" fill="#f4e5d0" stroke="#cbd7ca" /><text x="739" y="350" font-size="22" fill="#b24a30" text-anchor="middle" >negative</text><text x="460" y="412" font-size="19" fill="#183c35" text-anchor="middle" >ONE target after the final input</text></svg>