<svg xmlns="http://www.w3.org/2000/svg" viewBox="0 0 920 440" role="img" aria-label="DISTANCE / no new evidence does not mean no computation"><title>DISTANCE / no new evidence does not mean no computation</title><defs><marker id="memory-a-teal" viewBox="0 0 10 10" refX="8" refY="5" markerWidth="7" markerHeight="7" orient="auto-start-reverse"><path d="M0 0L10 5L0 10Z" fill="#12655b"/></marker><marker id="memory-a-coral" viewBox="0 0 10 10" refX="8" refY="5" markerWidth="7" markerHeight="7" orient="auto-start-reverse"><path d="M0 0L10 5L0 10Z" fill="#b24a30"/></marker></defs><style>text{font-family:system-ui,-apple-system,sans-serif;font-variant-numeric:tabular-nums}.number{font-family:ui-monospace,monospace}</style><rect width="920" height="440" rx="14" fill="#fffefa"/><text x="30" y="36" font-size="17" fill="#586c62" text-anchor="start" >DISTANCE / no new evidence does not mean no computation</text><rect x="33" y="88" width="153" height="129" rx="12" fill="#dceadd" stroke="#cbd7ca" /><text x="108" y="118" font-size="15" fill="#12655b" text-anchor="middle" >FIRST CLUE</text><text x="108" y="163" font-size="37" fill="#12655b" text-anchor="middle" >+1</text><text x="108" y="197" font-size="21" fill="#183c35" text-anchor="middle" >h₀</text><rect x="235" y="128" width="38" height="42" rx="12" fill="#dceadd" stroke="#cbd7ca" /><text x="254" y="156" font-size="19" fill="#586c62" text-anchor="middle" >0</text><rect x="282.8" y="128" width="38" height="42" rx="12" fill="#dceadd" stroke="#cbd7ca" /><text x="301.8" y="156" font-size="19" fill="#586c62" text-anchor="middle" >0</text><rect x="330.6" y="128" width="38" height="42" rx="12" fill="#dceadd" stroke="#cbd7ca" /><text x="349.6" y="156" font-size="19" fill="#586c62" text-anchor="middle" >0</text><rect x="378.4" y="128" width="38" height="42" rx="12" fill="#dceadd" stroke="#cbd7ca" /><text x="397.4" y="156" font-size="19" fill="#586c62" text-anchor="middle" >0</text><rect x="426.2" y="128" width="38" height="42" rx="12" fill="#dceadd" stroke="#cbd7ca" /><text x="445.2" y="156" font-size="19" fill="#586c62" text-anchor="middle" >0</text><rect x="474" y="128" width="38" height="42" rx="12" fill="#dceadd" stroke="#cbd7ca" /><text x="493" y="156" font-size="19" fill="#586c62" text-anchor="middle" >0</text><rect x="521.8" y="128" width="38" height="42" rx="12" fill="#dceadd" stroke="#cbd7ca" /><text x="540.8" y="156" font-size="19" fill="#586c62" text-anchor="middle" >0</text><rect x="569.5999999999999" y="128" width="38" height="42" rx="12" fill="#dceadd" stroke="#cbd7ca" /><text x="588.5999999999999" y="156" font-size="19" fill="#586c62" text-anchor="middle" >0</text><rect x="617.4" y="128" width="38" height="42" rx="12" fill="#dceadd" stroke="#cbd7ca" /><text x="636.4" y="156" font-size="19" fill="#586c62" text-anchor="middle" >0</text><rect x="665.2" y="128" width="38" height="42" rx="12" fill="#dceadd" stroke="#cbd7ca" /><text x="684.2" y="156" font-size="19" fill="#586c62" text-anchor="middle" >0</text><path d="M193 155 L222 155" fill="none" stroke="#12655b" stroke-width="2.5" marker-end="url(#memory-a-teal)"/><path d="M731 155 L770 155" fill="none" stroke="#12655b" stroke-width="2.5" marker-end="url(#memory-a-teal)"/><text x="476" y="109" font-size="19" fill="#586c62" text-anchor="middle" >20 zero-input updates</text><text x="476" y="205" font-size="16" fill="#586c62" text-anchor="middle" >10 shown as a schematic; all L links are calculated</text><rect x="783" y="89" width="107" height="129" rx="12" fill="#f4e5d0" stroke="#cbd7ca" /><text x="836" y="118" font-size="21" fill="#b24a30" text-anchor="middle" >h20</text><text x="836" y="169" font-size="22" fill="#b24a30" text-anchor="middle" >0.012</text><text x="35" y="274" font-size="21" fill="#183c35" text-anchor="start" >Trace: after 20 of 20 links</text><rect x="35" y="293" width="850" height="31" rx="12" fill="#edf0e7" stroke="#cbd7ca" /><rect x="35" y="293" width="850" height="31" rx="10" fill="#12655b"/><text x="35" y="367" font-size="25" fill="#12655b" text-anchor="start" >Current state = 0.012 · hₖ = 0.8ᵏ × h₀</text><text x="35" y="407" font-size="18" fill="#586c62" text-anchor="start" >Forward magnitude measures the state, not prediction accuracy.</text></svg>